<svg width="181" height="169" viewBox="0 0 181 169" fill="none" xmlns="http://www.w3.org/2000/svg">
<g filter="url(#filter0_f_240_592)">
<ellipse cx="28.7206" cy="24.1909" rx="28.7206" ry="24.1909" transform="matrix(0.930619 -0.36599 0.600267 0.7998 29.6862 98.111)" fill="#F0CEA0"/>
</g>
<g filter="url(#filter1_f_240_592)">
<ellipse cx="24.3021" cy="20.4692" rx="24.3021" ry="20.4692" transform="matrix(0.930619 -0.36599 0.600267 0.7998 79.8802 34.5953)" fill="#A9CBA6"/>
</g>
<g clip-path="url(#clip0_240_592)">
<path d="M125.78 97.1792V45.1479H53.5923V97.1792H48.436V110.187H130.936V97.1792H125.78ZM56.1704 47.7495H123.202V97.1792H56.1704V47.7495ZM94.0431 99.7807L92.754 102.382H86.6181L85.329 99.7807H94.0431ZM128.358 107.585H51.0142V99.7807H82.4415L85.0196 104.984H94.3524L96.9306 99.7807H128.358V107.585ZM58.7485 94.5776H120.624V50.351H58.7485V94.5776ZM61.3267 52.9526H118.045V91.976H61.3267V52.9526ZM99.5603 67.6254L97.7298 65.8043L88.397 75.4301L84.1431 71.1635L82.3384 72.9846L88.397 79.1243L99.5603 67.6254ZM69.061 71.1635H70.3501C70.692 71.1635 71.0199 71.3006 71.2616 71.5445C71.5033 71.7885 71.6392 72.1193 71.6392 72.4643C71.6392 72.8093 71.5033 73.1402 71.2616 73.3841C71.0199 73.628 70.692 73.7651 70.3501 73.7651H69.061V84.1713H110.311V73.7651H109.022C108.68 73.7651 108.352 73.628 108.11 73.3841C107.869 73.1402 107.733 72.8093 107.733 72.4643C107.733 72.1193 107.869 71.7885 108.11 71.5445C108.352 71.3006 108.68 71.1635 109.022 71.1635H110.311V60.7573H69.061V71.1635ZM71.6392 63.3588H107.733V68.7961C106.975 69.0575 106.316 69.5517 105.85 70.2095C105.384 70.8672 105.133 71.6557 105.133 72.4643C105.133 73.273 105.384 74.0614 105.85 74.7192C106.316 75.3769 106.975 75.8711 107.733 76.1325V81.5698H71.6392V76.1325C72.3975 75.8711 73.0558 75.3769 73.522 74.7192C73.9882 74.0614 74.2388 73.273 74.2388 72.4643C74.2388 71.6557 73.9882 70.8672 73.522 70.2095C73.0558 69.5517 72.3975 69.0575 71.6392 68.7961V63.3588Z" fill="black"/>
</g>
<defs>
<filter id="filter0_f_240_592" x="0.511475" y="44.9243" width="140.847" height="124.046" filterUnits="userSpaceOnUse" color-interpolation-filters="sRGB">
<feFlood flood-opacity="0" result="BackgroundImageFix"/>
<feBlend mode="normal" in="SourceGraphic" in2="BackgroundImageFix" result="shape"/>
<feGaussianBlur stdDeviation="20" result="effect1_foregroundBlur_240_592"/>
</filter>
<filter id="filter1_f_240_592" x="49.0402" y="-16.5626" width="131.486" height="117.27" filterUnits="userSpaceOnUse" color-interpolation-filters="sRGB">
<feFlood flood-opacity="0" result="BackgroundImageFix"/>
<feBlend mode="normal" in="SourceGraphic" in2="BackgroundImageFix" result="shape"/>
<feGaussianBlur stdDeviation="20" result="effect1_foregroundBlur_240_592"/>
</filter>
<clipPath id="clip0_240_592">
<rect x="48.4362" y="34.7417" width="82.5" height="83.25" fill="white"/>
</clipPath>
</defs>
</svg>
