<svg width="22" height="22" viewBox="0 0 22 22" fill="none" xmlns="http://www.w3.org/2000/svg">
<g id="SVG">
<g id="icon_technical_gas-stove">
<path id="Combined-Shape" fill-rule="evenodd" clip-rule="evenodd" d="M13.8987 15.4759C14.2408 15.4759 14.5227 15.7334 14.5613 16.0651L14.5657 16.1429V17.0868L15.2328 17.0874C15.9361 17.0874 16.5123 17.6316 16.5632 18.3219L16.5669 18.4215H5.89404C5.89404 17.6847 6.49134 17.0874 7.22815 17.0874L7.89521 17.0868V16.1429C7.89521 15.7745 8.19386 15.4759 8.56226 15.4759C8.90435 15.4759 9.18629 15.7334 9.22482 16.0651L9.22931 16.1429V17.0868H10.5634V16.2036C10.5634 15.8352 10.8621 15.5365 11.2305 15.5365C11.5726 15.5365 11.8545 15.794 11.893 16.1258L11.8975 16.2036V17.0868H13.2316V16.1429C13.2316 15.7745 13.5303 15.4759 13.8987 15.4759ZM10.9396 3.4406C11.0715 3.25597 11.3893 3.25597 11.5212 3.4406L15.295 8.72229C15.6695 9.26394 15.8972 10.0654 15.8999 10.692V10.706C15.8999 12.9093 13.7524 14.6898 11.1254 14.6411C8.83432 14.5988 6.8879 13.11 6.59789 11.1936C6.5773 11.0577 6.56543 10.9231 6.562 10.7899C6.54485 10.1288 6.77363 9.28952 7.16893 8.71807L10.9396 3.4406ZM11.2305 8.80532C10.1253 8.80532 9.22931 9.8506 9.22931 11.14C9.22931 12.4294 10.1253 13.4747 11.2305 13.4747C12.3357 13.4747 13.2316 12.4294 13.2316 11.14C13.2316 9.8506 12.3357 8.80532 11.2305 8.80532Z" fill="black"/>
</g>
</g>
</svg>
