<svg width="158" height="166" viewBox="0 0 158 166" fill="none" xmlns="http://www.w3.org/2000/svg">
<g id="ungebgrenzte KM">
<g id="Circle" filter="url(#filter0_f_240_1193)">
<circle cx="92.6595" cy="100.883" r="24.375" transform="rotate(-71.771 92.6595 100.883)" fill="#F0CEA0"/>
</g>
<g id="Circle_2" filter="url(#filter1_f_240_1193)">
<circle cx="60.6882" cy="41.4384" r="20.625" transform="rotate(-71.771 60.6882 41.4384)" fill="#A9CBA6"/>
</g>
<path id="Vector" d="M56.8158 72.6626C67.6397 72.6626 76.4454 63.8568 76.4454 53.033C76.4456 42.2091 67.6397 33.4034 56.8158 33.4034C45.9919 33.4034 37.1862 42.2091 37.1862 53.033C37.1862 63.8568 45.9919 72.6626 56.8158 72.6626ZM45.5554 65.6693C46.4638 60.1941 51.1905 56.1437 56.8161 56.1437C62.4417 56.1437 67.1683 60.1941 68.0766 65.6691C65.0818 68.3407 61.1355 69.9673 56.816 69.9673C52.4964 69.9673 48.5501 68.3408 45.5554 65.6693ZM51.7088 48.3411C51.7088 45.5248 54 43.2338 56.816 43.2338C59.6322 43.2338 61.9232 45.525 61.9232 48.3411C61.9232 51.1572 59.632 53.4484 56.816 53.4484C54 53.4484 51.7088 51.1574 51.7088 48.3411ZM56.8158 36.0987C66.1535 36.0987 73.7501 43.6954 73.7501 53.033C73.7501 56.8893 72.4535 60.4479 70.2745 63.2981C68.9659 59.1343 65.8058 55.8535 61.7896 54.3481C63.5165 52.9157 64.6185 50.7548 64.6185 48.3411C64.6185 44.0387 61.1183 40.5385 56.816 40.5385C52.5137 40.5385 49.0135 44.0387 49.0135 48.3411C49.0135 50.7548 50.1156 52.9157 51.8423 54.3481C47.8259 55.8533 44.6656 59.1343 43.3571 63.2982C41.1781 60.4483 39.8815 56.8895 39.8815 53.033C39.8815 43.6954 47.4782 36.0987 56.8158 36.0987ZM103.807 80.3941C92.9827 80.3941 84.1769 89.1999 84.1769 100.024C84.1769 110.847 92.9827 119.653 103.807 119.653C114.63 119.653 123.436 110.848 123.436 100.024C123.436 89.1999 114.63 80.3941 103.807 80.3941ZM103.807 83.0894C113.144 83.0894 120.741 90.6862 120.741 100.024C120.741 103.88 119.444 107.439 117.265 110.289C115.957 106.125 112.797 102.844 108.78 101.339C110.507 99.9065 111.609 97.7455 111.609 95.3319C111.609 91.0295 108.109 87.5293 103.807 87.5293C99.5041 87.5293 96.0039 91.0295 96.0039 95.3319C96.0039 97.7455 97.106 99.9065 98.8328 101.339C94.8165 102.844 91.6564 106.125 90.3478 110.289C88.1688 107.439 86.8722 103.88 86.8722 100.024C86.8721 90.686 94.4688 83.0894 103.807 83.0894ZM98.6991 95.3319C98.6991 92.5158 100.99 90.2246 103.806 90.2246C106.622 90.2246 108.914 92.5158 108.914 95.3319C108.914 98.148 106.622 100.439 103.806 100.439C100.99 100.439 98.6991 98.148 98.6991 95.3319ZM92.5459 112.66C93.4542 107.185 98.1809 103.134 103.807 103.134C109.432 103.134 114.159 107.185 115.067 112.66C112.072 115.332 108.126 116.958 103.807 116.958C99.487 116.958 95.5407 115.332 92.5459 112.66ZM96.3282 65.8952C96.7812 65.6657 97.0669 65.201 97.0669 64.6931V60.9516C104.182 61.1292 111.443 62.9034 113.888 72.4271C114.025 72.9614 114.474 73.3582 115.022 73.4286C115.079 73.436 115.137 73.4395 115.194 73.4395C115.678 73.4395 116.132 73.1777 116.371 72.7465C119.191 67.6722 119.147 61.7073 116.255 56.7906C114.554 53.899 111.912 51.5002 108.615 49.853C105.331 48.2122 101.451 47.3059 97.0667 47.1532V43.5697C97.0667 43.0463 96.7637 42.5701 96.2895 42.3486C95.8151 42.1272 95.2557 42.2 94.854 42.5362L81.4049 53.7925C81.0874 54.0584 80.9099 54.4553 80.923 54.8692C80.9363 55.2831 81.139 55.6676 81.4728 55.9126L94.9219 65.7796C95.3318 66.0801 95.8754 66.125 96.3282 65.8952ZM94.3716 59.588V62.0331L84.4532 54.7565L94.3716 46.4552V48.4777C94.3716 49.222 94.975 49.8254 95.7192 49.8254C104.178 49.8254 110.817 52.8623 113.932 58.1574C115.758 61.2609 116.215 64.8723 115.297 68.2837C113.619 64.5447 110.96 61.8355 107.358 60.2069C103.526 58.474 99.3241 58.2405 95.7191 58.2405C94.975 58.2403 94.3716 58.8436 94.3716 59.588ZM79.1495 97.1441L65.7004 87.2771C65.2909 86.9767 64.7472 86.9321 64.2941 87.1615C63.8409 87.391 63.5554 87.8557 63.5554 88.3636V92.1051C56.44 91.9275 49.1798 90.1533 46.7343 80.6296C46.597 80.0953 46.1481 79.6985 45.6008 79.6281C45.0528 79.5581 44.5188 79.8281 44.2507 80.3102C41.4311 85.3845 41.4747 91.3492 44.3673 96.2661C46.0684 99.1577 48.7101 101.557 52.0072 103.204C55.2914 104.844 59.171 105.751 63.5554 105.904V109.487C63.5554 110.01 63.8585 110.486 64.3327 110.708C64.5148 110.793 64.7093 110.834 64.9029 110.834C65.2134 110.834 65.5206 110.727 65.7681 110.52L79.2172 99.264C79.5347 98.9982 79.7123 98.6013 79.6992 98.1874C79.6858 97.7738 79.4832 97.3891 79.1495 97.1441ZM66.2507 106.602V104.579C66.2507 103.835 65.6473 103.232 64.9031 103.232C56.444 103.232 49.8058 100.195 46.6905 94.8996C44.8646 91.7961 44.4077 88.1847 45.325 84.7733C47.0028 88.5122 49.6628 91.2213 53.2644 92.8502C57.0964 94.5831 61.2983 94.8166 64.9032 94.8166C65.6475 94.8166 66.2509 94.2131 66.2509 93.4689V91.0237L76.1693 98.3004L66.2507 106.602Z" fill="black"/>
</g>
<defs>
<filter id="filter0_f_240_1193" x="28.278" y="36.5019" width="128.763" height="128.763" filterUnits="userSpaceOnUse" color-interpolation-filters="sRGB">
<feFlood flood-opacity="0" result="BackgroundImageFix"/>
<feBlend mode="normal" in="SourceGraphic" in2="BackgroundImageFix" result="shape"/>
<feGaussianBlur stdDeviation="20" result="effect1_foregroundBlur_240_1193"/>
</filter>
<filter id="filter1_f_240_1193" x="0.0576172" y="-19.1922" width="121.261" height="121.261" filterUnits="userSpaceOnUse" color-interpolation-filters="sRGB">
<feFlood flood-opacity="0" result="BackgroundImageFix"/>
<feBlend mode="normal" in="SourceGraphic" in2="BackgroundImageFix" result="shape"/>
<feGaussianBlur stdDeviation="20" result="effect1_foregroundBlur_240_1193"/>
</filter>
</defs>
</svg>
