<svg width="24" height="25" viewBox="0 0 24 25" fill="none" xmlns="http://www.w3.org/2000/svg">
<g id="SVG">
<g id="icon_technical_sink">
<path id="Shape" fill-rule="evenodd" clip-rule="evenodd" d="M16.6156 9.0562C17.6186 9.0562 17.9823 9.16063 18.349 9.35672C18.7156 9.55282 19.0034 9.84058 19.1995 10.2072C19.3956 10.5739 19.5 10.9376 19.5 11.9406V16.9181C19.5 17.9211 19.3956 18.2848 19.1995 18.6514C19.0034 19.0181 18.7156 19.3058 18.349 19.5019C17.9823 19.698 17.6186 19.8025 16.6156 19.8025H7.38437C6.38141 19.8025 6.01772 19.698 5.65105 19.5019C5.28438 19.3058 4.99662 19.0181 4.80052 18.6514C4.60443 18.2848 4.5 17.9211 4.5 16.9181V11.9406C4.5 10.9376 4.60443 10.5739 4.80052 10.2072C4.99662 9.84058 5.28438 9.55282 5.65105 9.35672C6.01772 9.16063 6.38141 9.0562 7.38437 9.0562H16.6156ZM16.125 10.7025H7.875C7.25368 10.7025 6.75 11.2062 6.75 11.8275V14.0775C6.75 14.6988 7.25368 15.2025 7.875 15.2025H16.125C16.7463 15.2025 17.25 14.6988 17.25 14.0775V11.8275C17.25 11.2062 16.7463 10.7025 16.125 10.7025ZM12 11.5177C12.8284 11.5177 13.5 12.1893 13.5 13.0177C13.5 13.8461 12.8284 14.5177 12 14.5177C11.1716 14.5177 10.5 13.8461 10.5 13.0177C10.5 12.1893 11.1716 11.5177 12 11.5177ZM17.0037 7.14893C17.2744 7.15494 17.4907 7.37609 17.4907 7.64685C17.4907 7.91761 17.2744 8.13876 17.0037 8.14477H16.0079V9.04238H15.0111V8.14477H14.0152C13.8347 8.14877 13.6662 8.05475 13.5747 7.89905C13.4833 7.74335 13.4833 7.55035 13.5747 7.39465C13.6662 7.23895 13.8347 7.14493 14.0152 7.14893H17.0037ZM9.51862 7.14893C9.78931 7.15494 10.0056 7.37609 10.0056 7.64685C10.0056 7.91761 9.78931 8.13876 9.51862 8.14477H8.52181V9.04238H7.52598V8.14477H6.53014C6.34962 8.14877 6.18107 8.05475 6.08964 7.89905C5.9982 7.74335 5.9982 7.55035 6.08964 7.39465C6.18107 7.23895 6.34962 7.14493 6.53014 7.14893H9.51862ZM10.8405 3.2677C11.6939 3.2677 12.3984 3.96931 12.3984 4.82272V9.04238H11.4026V4.82272C11.4026 4.50378 11.1594 4.26354 10.8405 4.26354C10.5215 4.26354 10.2813 4.50378 10.2813 4.82272V5.47332C10.2853 5.65384 10.1913 5.8224 10.0356 5.91384C9.87986 6.00527 9.68686 6.00527 9.53115 5.91384C9.37545 5.8224 9.28143 5.65384 9.28544 5.47332V4.82272C9.28544 3.96931 9.98705 3.2677 10.8405 3.2677Z" fill="black"/>
</g>
</g>
</svg>
