<svg width="22" height="23" viewBox="0 0 22 23" fill="none" xmlns="http://www.w3.org/2000/svg">
<g id="SVG">
<g id="icon_technical_schlafplatz-4">
<path id="Path" fill-rule="evenodd" clip-rule="evenodd" d="M4.22644 12.3045C4.22644 15.519 6.83446 18.127 10.0489 18.127C12.5344 18.127 14.7229 16.5544 15.5383 14.2496C15.6703 13.8804 15.3137 13.5237 14.9444 13.6541C14.4244 13.8395 13.8745 13.9338 13.3105 13.9338C11.994 13.9338 10.636 13.8395 9.5814 12.7718C8.52679 11.7041 8.41969 10.4272 8.41969 9.04296C8.41969 8.47893 8.51396 7.92905 8.69935 7.40902C8.80932 7.09323 8.5658 6.78687 8.26258 6.78687C8.21073 6.78687 8.15732 6.79629 8.1039 6.81514C5.79911 7.63054 4.22644 9.81908 4.22644 12.3045Z" fill="black"/>
</g>
</g>
</svg>
