<svg width="22" height="22" viewBox="0 0 22 22" fill="none" xmlns="http://www.w3.org/2000/svg">
<g id="SVG">
<g id="icon_technical_sitzplatz-5">
<path id="Combined-Shape" fill-rule="evenodd" clip-rule="evenodd" d="M7.97305 5.71326L8.08104 7.16829C8.11458 7.62031 7.79273 8.02127 7.34414 8.08627L6.86851 8.15519C6.3968 8.22354 5.95899 7.89656 5.89063 7.42485C5.87812 7.33846 5.87878 7.25068 5.89259 7.16449L6.12761 5.69825C6.18948 5.31225 6.50309 5.01604 6.89199 4.97629L7.07158 4.95793C7.52227 4.91186 7.92497 5.23986 7.97105 5.69055C7.97182 5.69811 7.97249 5.70569 7.97305 5.71326ZM8.93504 9.25358L10.5509 14.3595C10.6079 14.5395 10.612 14.7235 10.572 14.8949L13.7633 14.1578C14.1916 14.059 14.6347 14.2476 14.8605 14.6247L15.6918 16.0132C16.0758 16.6546 15.8671 17.4858 15.2257 17.8697C15.0203 17.9928 14.7858 18.0591 14.5463 18.0619L13.9203 18.0692L8.27325 18.1284C7.53648 18.1362 6.93295 17.5452 6.92522 16.8084L6.92519 15.7516C6.42233 15.7057 6.02139 15.2905 6.00581 14.773C6.00552 14.7633 6.00537 14.7536 6.00535 14.7439L5.99861 9.83187C5.99799 9.37809 6.29912 8.97922 6.73571 8.85552L7.69268 8.58437C8.21959 8.43507 8.76979 8.73144 8.93504 9.25358Z" fill="black"/>
</g>
</g>
</svg>
