<svg width="22" height="23" viewBox="0 0 22 23" fill="none" xmlns="http://www.w3.org/2000/svg">
<g id="SVG">
<g id="icon_cooling-box">
<path id="Combined-Shape" fill-rule="evenodd" clip-rule="evenodd" d="M14.2925 4.31189C15.5765 4.31189 16.1537 4.42735 16.6374 4.64608L16.7877 4.71858L16.8619 4.75737C17.4054 5.04805 17.832 5.47461 18.1227 6.01814L18.1985 6.16698C18.416 6.61746 18.5414 7.12294 18.5643 8.20482L18.5681 8.58751V14.7115L18.5643 15.0941C18.5427 16.1159 18.4296 16.6236 18.2339 17.0563L18.1614 17.2067L18.1227 17.2808C17.832 17.8244 17.4054 18.2509 16.8619 18.5416L16.713 18.6175C16.2626 18.835 15.7571 18.9604 14.6752 18.9833L14.2925 18.9871H8.16857L7.78588 18.9833C6.7641 18.9616 6.25646 18.8486 5.82371 18.6529L5.67337 18.5804L5.59919 18.5416C5.05567 18.2509 4.6291 17.8244 4.33842 17.2808L4.26253 17.132C4.03296 16.6565 3.90602 16.1197 3.8939 14.9084L3.89294 8.58751C3.89294 7.30352 4.0084 6.72632 4.22714 6.24266L4.29963 6.09232L4.33842 6.01814C4.6291 5.47461 5.05567 5.04805 5.59919 4.75737L5.74803 4.68148C6.22354 4.45191 6.76033 4.32497 7.97162 4.31285L14.2925 4.31189ZM14.4605 5.98007L8.16857 5.97952L7.84464 5.98174L7.56632 5.98866L7.32819 6.00063C7.25491 6.00551 7.18742 6.0113 7.12483 6.01805L6.95082 6.04129C6.76282 6.07194 6.62368 6.11523 6.49466 6.17385L6.38565 6.22791C6.13274 6.36317 5.94422 6.55168 5.80897 6.80459L5.7549 6.9136C5.69628 7.04262 5.65299 7.18177 5.62234 7.36976L5.59911 7.54377C5.59235 7.60636 5.58657 7.67385 5.58169 7.74713L5.56971 7.98526L5.5628 8.26358C5.56205 8.31362 5.56149 8.36556 5.56113 8.41951V14.8795L5.56606 15.1962C5.58254 15.8284 5.6377 16.1245 5.75196 16.3788L5.80897 16.4944C5.94422 16.7473 6.13274 16.9358 6.38565 17.0711L6.49466 17.1251C6.62368 17.1837 6.76282 17.227 6.95082 17.2577L7.12483 17.2809C7.18742 17.2877 7.25491 17.2935 7.32819 17.2983L7.56632 17.3103L7.84464 17.3172L8.16857 17.3194L14.4605 17.3189L14.761 17.3144L15.0185 17.305C15.1375 17.299 15.2424 17.291 15.3362 17.2809L15.5103 17.2577C15.6983 17.227 15.8374 17.1837 15.9664 17.1251L16.0754 17.0711C16.3283 16.9358 16.5169 16.7473 16.6521 16.4944L16.7062 16.3854C16.7648 16.2563 16.8081 16.1172 16.8387 15.9292L16.862 15.7552C16.8687 15.6926 16.8745 15.6251 16.8794 15.5518L16.8914 15.3137L16.8983 15.0354L16.9005 14.7115L16.9 8.41951L16.8954 8.11906L16.886 7.86151C16.8801 7.74256 16.8721 7.63766 16.862 7.54377L16.8387 7.36976C16.8081 7.18177 16.7648 7.04262 16.7062 6.9136L16.6521 6.80459C16.5169 6.55168 16.3283 6.36317 16.0754 6.22791L15.9664 6.17385C15.8374 6.11523 15.6983 6.07194 15.5103 6.04129L15.3362 6.01805C15.2737 6.0113 15.2062 6.00551 15.1329 6.00063L14.8948 5.98866L14.6164 5.98174C14.5664 5.98099 14.5145 5.98044 14.4605 5.98007ZM11.9768 8.6882C11.9458 9.08791 11.9781 9.49196 11.9681 9.89412C11.9594 10.2533 12.0816 10.3547 12.4072 10.1615C12.8191 9.91722 13.2343 9.6781 13.653 9.4455C14.1305 9.18029 14.55 9.27132 14.7704 9.67674C14.9821 10.0664 14.8489 10.4558 14.3984 10.7251C13.9742 10.9791 13.5443 11.2231 13.1147 11.4682C12.843 11.6234 12.8324 11.7718 13.1115 11.931C13.5411 12.1758 13.971 12.4204 14.3954 12.6739C14.847 12.9434 14.9823 13.3323 14.7726 13.7214C14.5557 14.123 14.1307 14.2148 13.6549 13.9515C13.2631 13.735 12.8789 13.5035 12.4887 13.2834C12.0564 13.0399 11.9816 13.0804 11.9762 13.5605L11.9663 14.1643C11.9646 14.3655 11.967 14.5665 11.9811 14.7665C12.0126 15.2077 11.8757 15.5474 11.5056 15.7909H10.948C10.5784 15.5235 10.4461 15.1656 10.4814 14.7113C10.5127 14.3121 10.4798 13.9081 10.4901 13.5065C10.4994 13.1472 10.3793 13.0462 10.0532 13.2402C9.64208 13.4853 9.22688 13.7238 8.80842 13.9559C8.33018 14.2208 7.91281 14.1303 7.69108 13.7249C7.47859 13.3366 7.61092 12.9467 8.0609 12.6777C8.47175 12.4323 8.88749 12.1951 9.30541 11.9617C9.61735 11.7875 9.63909 11.6269 9.31193 11.4443C8.89401 11.2109 8.47854 10.9731 8.06769 10.728C7.61391 10.4571 7.47913 10.0729 7.68809 9.68407C7.90683 9.27703 8.32556 9.18383 8.80299 9.44794C9.19454 9.66451 9.57822 9.89629 9.96788 10.1161C10.4149 10.3683 10.4798 10.3275 10.4828 9.79874C10.485 9.42811 10.5075 9.0553 10.4771 8.68684C10.4325 8.14501 10.6765 7.81188 10.9801 7.69476C11.4423 7.51624 12.0431 7.83823 11.9768 8.6882Z" fill="black"/>
</g>
</g>
</svg>
