<svg width="22" height="23" viewBox="0 0 22 23" fill="none" xmlns="http://www.w3.org/2000/svg">
<g id="SVG">
<g id="icon_technical_dachzelt_roof-tent-copy-3">
<path id="Combined-Shape" fill-rule="evenodd" clip-rule="evenodd" d="M5.54429 8.36231C5.55853 8.36691 5.5726 8.37205 5.58644 8.37774L18.0621 13.505C18.3842 13.6374 18.5502 13.9952 18.4434 14.3266C18.3494 14.6182 18.0524 14.7823 17.7639 14.7144L17.764 17.2024H3.82629L5.50393 9.68343L5.20078 9.55909C4.87871 9.42672 4.71263 9.06888 4.81946 8.73746C4.91828 8.4309 5.24215 8.26492 5.54429 8.36231ZM9.9589 13.2999C8.41938 13.2999 7.17135 14.5479 7.17135 16.0874H12.7465C12.7465 14.5479 11.4984 13.2999 9.9589 13.2999Z" fill="black"/>
<path id="Combined-Shape_2" fill-rule="evenodd" clip-rule="evenodd" d="M9.388 8.37744C10.7022 6.0065 13.6897 5.14987 16.0606 6.4641L16.036 6.45172L15.5766 4.84749C15.5239 4.66349 15.6117 4.47269 15.7777 4.39076L15.8434 4.36537L16.0284 4.31221C16.235 4.25309 16.451 4.37304 16.5101 4.57968L17.4734 7.93901L14.1141 8.90228C13.9075 8.96165 13.6912 8.84222 13.6319 8.63548L13.579 8.45048C13.5194 8.24312 13.6395 8.0281 13.8464 7.96891L15.8044 7.40806C15.7321 7.39251 15.6578 7.36322 15.5847 7.3227C15.2352 7.12901 14.8157 7.09134 14.444 7.01543C12.8539 6.6907 11.1705 7.41161 10.342 8.90625C9.74762 9.97851 9.70905 11.247 10.2076 12.3422C10.3324 12.6163 10.2114 12.9397 9.93726 13.0645C9.66313 13.1893 9.33973 13.0682 9.21493 12.7941C8.5746 11.3876 8.62424 9.75529 9.388 8.37744Z" fill="black"/>
</g>
</g>
</svg>
